<svg xmlns="http://www.w3.org/2000/svg" xmlns:xlink="http://www.w3.org/1999/xlink" width="700" zoomAndPan="magnify" viewBox="0 0 525 525.000007" height="700" preserveAspectRatio="xMidYMid meet" version="1.0"><path fill="#ffffff" d="M 415.320312 261.773438 C 415.320312 264.28125 415.257812 266.785156 415.132812 269.285156 C 415.011719 271.789062 414.828125 274.285156 414.582031 276.777344 C 414.335938 279.269531 414.03125 281.757812 413.660156 284.234375 C 413.292969 286.710938 412.867188 289.179688 412.378906 291.636719 C 411.890625 294.09375 411.339844 296.535156 410.730469 298.964844 C 410.121094 301.394531 409.453125 303.808594 408.726562 306.207031 C 408 308.605469 407.214844 310.980469 406.371094 313.339844 C 405.527344 315.699219 404.625 318.035156 403.667969 320.351562 C 402.707031 322.664062 401.695312 324.953125 400.621094 327.21875 C 399.550781 329.484375 398.425781 331.71875 397.246094 333.929688 C 396.0625 336.136719 394.828125 338.316406 393.542969 340.464844 C 392.253906 342.613281 390.914062 344.730469 389.523438 346.8125 C 388.132812 348.894531 386.6875 350.941406 385.195312 352.953125 C 383.703125 354.964844 382.164062 356.941406 380.574219 358.878906 C 378.984375 360.8125 377.351562 362.710938 375.667969 364.566406 C 373.984375 366.421875 372.257812 368.234375 370.488281 370.007812 C 368.714844 371.777344 366.902344 373.503906 365.046875 375.1875 C 363.191406 376.871094 361.292969 378.503906 359.359375 380.09375 C 357.421875 381.683594 355.445312 383.222656 353.433594 384.714844 C 351.421875 386.207031 349.375 387.652344 347.292969 389.042969 C 345.210938 390.433594 343.09375 391.773438 340.945312 393.0625 C 338.796875 394.347656 336.617188 395.582031 334.410156 396.765625 C 332.199219 397.945312 329.960938 399.070312 327.699219 400.144531 C 325.433594 401.214844 323.144531 402.226562 320.832031 403.1875 C 318.515625 404.144531 316.179688 405.046875 313.820312 405.890625 C 311.460938 406.734375 309.085938 407.519531 306.6875 408.246094 C 304.289062 408.976562 301.875 409.640625 299.445312 410.25 C 297.015625 410.859375 294.574219 411.410156 292.117188 411.898438 C 289.660156 412.386719 287.191406 412.8125 284.714844 413.183594 C 282.238281 413.550781 279.75 413.855469 277.257812 414.101562 C 274.765625 414.347656 272.269531 414.53125 269.765625 414.652344 C 267.265625 414.777344 264.761719 414.839844 262.253906 414.839844 C 259.75 414.839844 257.246094 414.777344 254.746094 414.652344 C 252.242188 414.53125 249.746094 414.347656 247.253906 414.101562 C 244.757812 413.855469 242.273438 413.550781 239.796875 413.183594 C 237.320312 412.8125 234.851562 412.386719 232.394531 411.898438 C 229.9375 411.410156 227.492188 410.859375 225.0625 410.25 C 222.632812 409.640625 220.21875 408.976562 217.824219 408.246094 C 215.425781 407.519531 213.046875 406.734375 210.691406 405.890625 C 208.332031 405.046875 205.996094 404.144531 203.679688 403.1875 C 201.367188 402.226562 199.078125 401.214844 196.8125 400.144531 C 194.546875 399.070312 192.3125 397.945312 190.101562 396.765625 C 187.890625 395.582031 185.714844 394.347656 183.566406 393.0625 C 181.417969 391.773438 179.300781 390.433594 177.21875 389.042969 C 175.136719 387.652344 173.085938 386.207031 171.074219 384.714844 C 169.0625 383.222656 167.089844 381.683594 165.152344 380.09375 C 163.214844 378.503906 161.320312 376.871094 159.464844 375.1875 C 157.609375 373.503906 155.792969 371.777344 154.023438 370.007812 C 152.25 368.234375 150.523438 366.421875 148.84375 364.566406 C 147.160156 362.710938 145.523438 360.8125 143.9375 358.878906 C 142.347656 356.941406 140.804688 354.964844 139.3125 352.953125 C 137.820312 350.941406 136.378906 348.894531 134.988281 346.8125 C 133.597656 344.730469 132.257812 342.613281 130.96875 340.464844 C 129.679688 338.316406 128.445312 336.136719 127.265625 333.929688 C 126.085938 331.71875 124.957031 329.484375 123.886719 327.21875 C 122.816406 324.953125 121.800781 322.664062 120.84375 320.351562 C 119.882812 318.035156 118.984375 315.699219 118.140625 313.339844 C 117.296875 310.980469 116.511719 308.605469 115.78125 306.207031 C 115.054688 303.808594 114.386719 301.394531 113.777344 298.964844 C 113.171875 296.535156 112.621094 294.09375 112.132812 291.636719 C 111.644531 289.179688 111.214844 286.710938 110.847656 284.234375 C 110.480469 281.757812 110.175781 279.269531 109.929688 276.777344 C 109.683594 274.285156 109.5 271.789062 109.375 269.285156 C 109.253906 266.785156 109.191406 264.28125 109.191406 261.773438 C 109.191406 259.269531 109.253906 256.765625 109.375 254.265625 C 109.5 251.761719 109.683594 249.265625 109.929688 246.773438 C 110.175781 244.277344 110.480469 241.792969 110.847656 239.316406 C 111.214844 236.839844 111.644531 234.371094 112.132812 231.914062 C 112.621094 229.457031 113.171875 227.011719 113.777344 224.582031 C 114.386719 222.152344 115.054688 219.738281 115.78125 217.34375 C 116.511719 214.945312 117.296875 212.566406 118.140625 210.210938 C 118.984375 207.851562 119.882812 205.515625 120.84375 203.199219 C 121.800781 200.886719 122.816406 198.597656 123.886719 196.332031 C 124.957031 194.066406 126.085938 191.832031 127.265625 189.621094 C 128.445312 187.414062 129.679688 185.234375 130.96875 183.085938 C 132.257812 180.9375 133.597656 178.820312 134.988281 176.738281 C 136.378906 174.65625 137.820312 172.605469 139.3125 170.59375 C 140.804688 168.582031 142.347656 166.609375 143.9375 164.671875 C 145.523438 162.734375 147.160156 160.839844 148.84375 158.984375 C 150.523438 157.128906 152.25 155.3125 154.023438 153.542969 C 155.792969 151.773438 157.609375 150.042969 159.464844 148.363281 C 161.320312 146.679688 163.214844 145.042969 165.152344 143.457031 C 167.089844 141.867188 169.0625 140.324219 171.074219 138.832031 C 173.085938 137.339844 175.136719 135.898438 177.21875 134.507812 C 179.300781 133.117188 181.417969 131.777344 183.566406 130.488281 C 185.714844 129.199219 187.890625 127.964844 190.101562 126.785156 C 192.3125 125.605469 194.546875 124.476562 196.8125 123.40625 C 199.078125 122.335938 201.367188 121.320312 203.679688 120.363281 C 205.996094 119.402344 208.332031 118.503906 210.691406 117.660156 C 213.046875 116.816406 215.425781 116.03125 217.824219 115.300781 C 220.21875 114.574219 222.632812 113.90625 225.0625 113.296875 C 227.492188 112.691406 229.9375 112.140625 232.394531 111.652344 C 234.851562 111.164062 237.320312 110.734375 239.796875 110.367188 C 242.273438 110 244.757812 109.695312 247.253906 109.449219 C 249.746094 109.203125 252.242188 109.019531 254.746094 108.894531 C 257.246094 108.773438 259.75 108.710938 262.253906 108.710938 C 264.761719 108.710938 267.265625 108.773438 269.765625 108.894531 C 272.269531 109.019531 274.765625 109.203125 277.257812 109.449219 C 279.75 109.695312 282.238281 110 284.714844 110.367188 C 287.191406 110.734375 289.660156 111.164062 292.117188 111.652344 C 294.574219 112.140625 297.015625 112.691406 299.445312 113.296875 C 301.875 113.90625 304.289062 114.574219 306.6875 115.300781 C 309.085938 116.03125 311.460938 116.816406 313.820312 117.660156 C 316.179688 118.503906 318.515625 119.402344 320.832031 120.363281 C 323.144531 121.320312 325.433594 122.335938 327.699219 123.40625 C 329.960938 124.476562 332.199219 125.605469 334.410156 126.785156 C 336.617188 127.964844 338.796875 129.199219 340.945312 130.488281 C 343.09375 131.777344 345.210938 133.117188 347.292969 134.507812 C 349.375 135.898438 351.421875 137.339844 353.433594 138.832031 C 355.445312 140.324219 357.421875 141.867188 359.359375 143.457031 C 361.292969 145.042969 363.191406 146.679688 365.046875 148.363281 C 366.902344 150.042969 368.714844 151.773438 370.488281 153.542969 C 372.257812 155.3125 373.984375 157.128906 375.667969 158.984375 C 377.351562 160.839844 378.984375 162.734375 380.574219 164.671875 C 382.164062 166.609375 383.703125 168.582031 385.195312 170.59375 C 386.6875 172.605469 388.132812 174.65625 389.523438 176.738281 C 390.914062 178.820312 392.253906 180.9375 393.542969 183.085938 C 394.828125 185.234375 396.0625 187.414062 397.246094 189.621094 C 398.425781 191.832031 399.550781 194.066406 400.621094 196.332031 C 401.695312 198.597656 402.707031 200.886719 403.667969 203.199219 C 404.625 205.515625 405.527344 207.851562 406.371094 210.210938 C 407.214844 212.566406 408 214.945312 408.726562 217.34375 C 409.453125 219.738281 410.121094 222.152344 410.730469 224.582031 C 411.339844 227.011719 411.890625 229.457031 412.378906 231.914062 C 412.867188 234.371094 413.292969 236.839844 413.660156 239.316406 C 414.03125 241.792969 414.335938 244.277344 414.582031 246.773438 C 414.828125 249.265625 415.011719 251.761719 415.132812 254.265625 C 415.257812 256.765625 415.320312 259.269531 415.320312 261.773438 Z M 415.320312 261.773438 " fill-opacity="1" fill-rule="nonzero"/><path fill="#6fc7ba" d="M 452.140625 179.367188 C 441.695312 154.148438 425.203125 130.757812 406.179688 111.769531 C 387.226562 92.746094 362.867188 78.53125 337.613281 68.085938 C 313.328125 57.976562 286.207031 52.902344 258.226562 52.902344 C 230.246094 52.902344 201.484375 53.910156 177.199219 64.019531 C 151.980469 74.464844 130.867188 94.3125 111.878906 113.335938 C 92.851562 132.363281 70.769531 152.546875 60.320312 177.726562 C 50.210938 202.085938 53.496094 231.746094 53.496094 259.761719 C 53.496094 287.777344 55.546875 315.160156 65.65625 339.519531 C 76.101562 364.738281 97.441406 382.570312 116.390625 401.59375 C 135.417969 420.621094 152.617188 443.300781 177.832031 453.746094 C 202.195312 463.859375 230.210938 470.722656 258.1875 470.722656 C 286.167969 470.722656 313.660156 462.441406 338.023438 452.292969 C 363.203125 441.847656 385.996094 425.507812 405.023438 406.519531 C 424.046875 387.492188 439.304688 364.289062 449.828125 339.070312 C 459.898438 314.785156 471.425781 287.738281 471.425781 259.761719 C 471.425781 231.78125 462.175781 203.800781 452.066406 179.441406 Z M 316.871094 378.914062 L 272.550781 372.386719 L 285.199219 286.582031 L 192.421875 358.058594 L 165.113281 322.394531 L 246.511719 259.722656 L 165.113281 197.011719 L 192.421875 161.347656 L 285.199219 232.828125 L 272.550781 147.0625 L 316.871094 140.457031 L 334.515625 259.761719 L 316.871094 378.988281 Z M 316.871094 378.914062 " fill-opacity="1" fill-rule="nonzero"/></svg>